<svg xmlns="http://www.w3.org/2000/svg" width="37.001" height="37" viewBox="0 0 37.001 37"><defs><style>.a{fill:#fff;}</style></defs><g transform="translate(0.001)"><g transform="translate(-0.001)"><path class="a" d="M16.99,33.917H.771a.772.772,0,0,1-.749-.957l.832-3.345a4.937,4.937,0,0,1,3.251-3.506L10.3,24.044c.919-.384,1.492-1.768,1.551-3.809-.709-.644-2.231-2.217-2.231-3.83,0-.566-.19-.681-.191-.683a.64.64,0,0,1-.449-.435,10.55,10.55,0,0,1-.748-3.077.739.739,0,0,1,.023-.183,1.791,1.791,0,0,1,.684-1.044c.009-.185.02-.39.032-.618.039-.762.093-1.778.093-3.042C9.065,4.431,12.6,0,16.959,0c3.942,0,5.851,2.1,6.167,3.456.964.533,1.8,1.414,1.8,3.866v3.665a2.028,2.028,0,0,1,.717.977.776.776,0,0,1,.039.245.8.8,0,0,1-.771.8.748.748,0,0,1-.762-.624.469.469,0,0,0-.091-.126.674.674,0,0,1-.675-.745V7.323c0-2.012-.646-2.337-1.031-2.53a1.089,1.089,0,0,1-.725-.954c-.028-.464-1.326-2.3-4.671-2.3-3.669,0-6.352,3.8-6.352,5.781,0,1.3-.054,2.34-.1,3.122-.022.446-.042.8-.042,1.071a.772.772,0,0,1-.692.768,8.816,8.816,0,0,0,.543,2.177,2.254,2.254,0,0,1,.843,1.943c0,.869,1.014,2.107,1.958,2.891a.772.772,0,0,1,.278.594c0,2.926-.908,4.915-2.558,5.6L4.591,27.573A3.4,3.4,0,0,0,2.35,29.99l-.592,2.385H16.99a.771.771,0,1,1,0,1.542Z" transform="translate(0.001)"/></g><g transform="translate(18.5 15.416)"><path class="a" d="M21.25,31.583a.748.748,0,0,1-.3-.062C20.584,31.369,12,27.658,12,20.076V13.634a.773.773,0,0,1,.524-.731L21,10.04a.772.772,0,0,1,.493,0L29.976,12.9a.77.77,0,0,1,.524.731v6.443c0,7.582-8.584,11.293-8.951,11.447a.773.773,0,0,1-.3.06Zm-7.708-17.4v5.889c0,5.835,6.251,9.185,7.708,9.888,1.455-.7,7.708-4.067,7.708-9.888V14.187l-7.708-2.6Z" transform="translate(-12 -10)"/></g><g transform="translate(23.126 22.354)"><path class="a" d="M18.854,21.438a.362.362,0,0,1-.042,0,.77.77,0,0,1-.56-.288l-3.083-3.854a.771.771,0,1,1,1.2-.964l2.544,3.182L23.7,14.725a.771.771,0,0,1,1.09,1.09l-5.4,5.4a.761.761,0,0,1-.544.227Z" transform="translate(-15 -14.5)"/></g></g></svg>