<svg xmlns="http://www.w3.org/2000/svg" width="36.371" height="34.084" viewBox="0 0 36.371 34.084"><defs><style>.a{fill:#fff;}</style></defs><path class="a" d="M35.136,44.172v4.395a.606.606,0,1,0,1.212,0V44.172a.606.606,0,0,0-1.212,0ZM26.358,33.991a.606.606,0,0,0,.606.592,3.673,3.673,0,0,0,3.1-1.834H31.1a4.042,4.042,0,0,1,4.038,4.038v4.1H31.673V40a.606.606,0,1,0-1.212,0v8.562a.606.606,0,1,0,1.212,0V42.1h4.092a.606.606,0,0,0,.584-.767V36.787a5.256,5.256,0,0,0-5.25-5.25h-.935L29.72,30.2a5.263,5.263,0,0,0,2.565-4.513V18.941a3.856,3.856,0,0,0-3.852-3.852h-8.3a.606.606,0,0,0-.606.606v1.752a5.31,5.31,0,0,0,5.3,5.3h6.241v2.934a4.038,4.038,0,0,1-4.405,4.022A4.082,4.082,0,0,1,23,25.642V24.467a.606.606,0,0,0-1.212,0v1.175a5.317,5.317,0,0,0,2.282,4.371l-.575,1.909a.606.606,0,1,0,1.161.35l.507-1.682a5.279,5.279,0,0,0,3.449.107l.451,1.36a2.462,2.462,0,0,1-2.11,1.313A.606.606,0,0,0,26.358,33.991Zm4.715-12.452H24.831a4.1,4.1,0,0,1-4.092-4.092V16.3h7.694a2.642,2.642,0,0,1,2.639,2.639ZM3.295,31.9a.606.606,0,1,1,.453,1.125,4.027,4.027,0,0,0-2.535,3.753v1.411a.606.606,0,0,1-1.212,0V36.775A5.234,5.234,0,0,1,3.295,31.9Zm3.206.789a.606.606,0,0,0,.58-.431l.507-1.682a5.28,5.28,0,0,0,3.455.1l.452,1.365a2.466,2.466,0,0,1-2.113,1.315A.606.606,0,0,0,9.4,34.568,3.682,3.682,0,0,0,12.7,32.316a.606.606,0,0,0,.017-.427l-.568-1.715a5.315,5.315,0,0,0,2.569-4.558V23.278a.606.606,0,0,0-.614-.606,23.387,23.387,0,0,1-7.734-1.207,1.64,1.64,0,0,0-2.164,1.553V25.66A5.272,5.272,0,0,0,6.495,30L5.92,31.905A.607.607,0,0,0,6.5,32.686ZM5.423,25.66V23.018a.421.421,0,0,1,.177-.346c.283-.2.318-.013,2.052.435a24.641,24.641,0,0,0,5.859.777v1.733a4.088,4.088,0,0,1-3.676,4.071A4.044,4.044,0,0,1,5.423,25.66Zm9.931,17.363-.55,1.722a.606.606,0,0,0,1.155.369l.508-1.591a5.6,5.6,0,0,0,3.427,0L20.34,44.9a2.411,2.411,0,0,1-2.094,1.342.606.606,0,0,0,.015,1.212,3.618,3.618,0,0,0,3.113-1.913H22.58A2.427,2.427,0,0,1,25,47.961v.606a.606.606,0,1,0,1.212,0v-.606a3.641,3.641,0,0,0-3.637-3.637H21.429l-.422-1.3A5.605,5.605,0,0,0,16.854,32.74V22.672a7.549,7.549,0,0,0-15.1,0V28.9a.606.606,0,1,0,1.212,0V22.672a6.336,6.336,0,0,1,12.673,0v10.52A5.605,5.605,0,0,0,15.354,43.023ZM13.79,38.186a4.395,4.395,0,1,1,4.395,4.395A4.4,4.4,0,0,1,13.79,38.186Zm-1.645,6.53a.606.606,0,1,1,.549,1.081,2.416,2.416,0,0,0-1.329,2.164v.606a.606.606,0,1,1-1.212,0v-.606a3.623,3.623,0,0,1,1.992-3.245ZM.606,40.885H4.7V40A.606.606,0,1,1,5.91,40v8.562a.606.606,0,1,1-1.212,0V42.1H1.212v6.469a.606.606,0,1,1-1.212,0V41.491A.606.606,0,0,1,.606,40.885Z" transform="translate(0 -15.089)"/></svg>