<svg xmlns="http://www.w3.org/2000/svg" width="30.39" height="36.592" viewBox="0 0 30.39 36.592"><defs><style>.a{fill:#fff;}</style></defs><g transform="translate(-43.489)"><path class="a" d="M276.2,354.133h-8.492a.541.541,0,0,0,0,1.083H276.2a.541.541,0,0,0,0-1.083Z" transform="translate(-207.752 -328.831)"/><path class="a" d="M153.586,394.93h7.088a.541.541,0,1,0,0-1.083h-7.088a.541.541,0,1,0,0,1.083Z" transform="translate(-101.75 -365.708)"/><path class="a" d="M153.586,434.644h16.729a.541.541,0,0,0,0-1.083H153.586a.541.541,0,1,0,0,1.083Z" transform="translate(-101.826 -402.631)"/><path class="a" d="M153.586,355.216h5.633a.541.541,0,1,0,0-1.083h-5.633a.541.541,0,1,0,0,1.083Z" transform="translate(-101.743 -328.831)"/><path class="a" d="M312.964,393.847h-5.631a.541.541,0,0,0,0,1.083h5.631a.541.541,0,0,0,0-1.083Z" transform="translate(-244.527 -365.708)"/><path class="a" d="M154.529,105.627a.784.784,0,0,0-.621.2.667.667,0,0,0-.186.513,3.941,3.941,0,0,0,7.87.083.729.729,0,0,0-.192-.571.885.885,0,0,0-.712-.225h-.112l-2.52-2.791a.538.538,0,0,0-.246-.234,15.17,15.17,0,0,0-3.579-1.189c0-.044,0-.088,0-.132a2.379,2.379,0,0,0-4.758,0c0,.039,0,.078,0,.116a14.2,14.2,0,0,0-3.587,1.208.538.538,0,0,0-.24.232l-2.518,2.791h-.114a.886.886,0,0,0-.712.225.729.729,0,0,0-.192.571,3.942,3.942,0,0,0,7.872-.083s0,0,0,0a.669.669,0,0,0-.189-.511.785.785,0,0,0-.618-.2h-.056l-2.116-2.344a12.756,12.756,0,0,1,2.776-.843,2.384,2.384,0,0,0,1.526,1.129v8.341h-.936a1.828,1.828,0,0,0-1.826,1.826v.744h-5.106a.541.541,0,1,0,0,1.083h16.73a.541.541,0,0,0,0-1.083h-4.887v-.744a1.829,1.829,0,0,0-1.828-1.826H152.4v-8.341a2.384,2.384,0,0,0,1.518-1.115,13.64,13.64,0,0,1,2.777.835l-2.108,2.337Zm-8.475,3.4a2.868,2.868,0,0,1-2.809-2.318h5.616A2.852,2.852,0,0,1,146.054,109.029Zm1.616-3.4H144.6l1.537-1.7ZM153.461,113a.746.746,0,0,1,.746.744v.744h-4.571v-.744a.745.745,0,0,1,.744-.744Zm-1.6-10.444a1.27,1.27,0,1,1,1.3-1.27A1.285,1.285,0,0,1,151.857,102.551Zm5.723,1.374,1.538,1.7h-3.075Zm2.887,2.786a2.859,2.859,0,0,1-5.615,0Z" transform="translate(-91.799 -91.917)"/><path class="a" d="M73.343,17.226a.536.536,0,0,0,.536-.536V3.79a1.158,1.158,0,0,0-1.156-1.156H70.737V1.17A1.172,1.172,0,0,0,69.567,0H44.659a1.172,1.172,0,0,0-1.17,1.17V15.576a.536.536,0,0,0,1.073,0V1.17a.1.1,0,0,1,.1-.1H69.567a.1.1,0,0,1,.1.1V2.634H47.787A1.158,1.158,0,0,0,46.631,3.79V32.884H44.659a.1.1,0,0,1-.1-.1V18.05a.536.536,0,0,0-1.073,0V32.786a1.172,1.172,0,0,0,1.17,1.17H46.63v1.48a1.158,1.158,0,0,0,1.156,1.156H72.722a1.158,1.158,0,0,0,1.156-1.156V19.614a.536.536,0,0,0-1.073,0V35.436a.086.086,0,0,1-.084.084H47.787a.086.086,0,0,1-.084-.084V33.427s0,0,0-.007,0,0,0-.007V3.79a.086.086,0,0,1,.084-.084H72.723a.086.086,0,0,1,.084.084v12.9A.536.536,0,0,0,73.343,17.226Z" transform="translate(0 0)"/></g></svg>