<svg xmlns="http://www.w3.org/2000/svg" width="31.187" height="34.713" viewBox="0 0 31.187 34.713"><defs><style>.a{fill:#fff;}</style></defs><g transform="translate(-26)"><g transform="translate(48.373 26.848)"><path class="a" d="M356.678,396a.678.678,0,1,0,.678.678A.678.678,0,0,0,356.678,396Z" transform="translate(-356 -396)"/></g><g transform="translate(26)"><g transform="translate(0)"><path class="a" d="M50.721,24.656,47.5,23.582l-1.157-2.314a7.426,7.426,0,0,0,2.01-3.928l.144-.865h1.234a2.036,2.036,0,0,0,2.034-2.034V10.17a10.17,10.17,0,1,0-20.34,0v4.271a2.037,2.037,0,0,0,1.356,1.917v.795a2.036,2.036,0,0,0,2.034,2.034h.6a7.355,7.355,0,0,0,1.137,1.761c.1.11.2.217.3.321l-1.156,2.312-3.223,1.074A9.993,9.993,0,0,0,26,34.035a.678.678,0,0,0,.678.678H56.509a.678.678,0,0,0,.678-.678A9.993,9.993,0,0,0,50.721,24.656Zm-.313-10.215a.679.679,0,0,1-.678.678H48.695c.172-1.335.287-2.756.333-4.155,0-.039,0-.078,0-.117h1.376Zm-16.95.678a.679.679,0,0,1-.678-.678V10.848h1.376q0,.106.007.213v.007h0c.047,1.361.161,2.745.329,4.05H33.458Zm1.356,2.712a.679.679,0,0,1-.678-.678v-.678h.556l.144.865c.028.164.061.328.1.491Zm-.677-8.339H32.806a8.814,8.814,0,0,1,17.576,0H49.05a6.867,6.867,0,0,0-6.85-6.78H40.987A6.867,6.867,0,0,0,34.137,9.492Zm6.85-5.424H42.2a5.513,5.513,0,0,1,5.5,5.519c0,.213,0,.4-.005.568,0,0,0,0,0,.007l-.848-.121a10.894,10.894,0,0,1-6.125-3.063.678.678,0,0,0-.479-.2,6.134,6.134,0,0,0-4.716,2.231A5.511,5.511,0,0,1,40.987,4.068ZM36.342,17.831a38.753,38.753,0,0,1-.814-6.58l.912-1.217A4.772,4.772,0,0,1,39.97,8.143a12.263,12.263,0,0,0,6.681,3.24l1,.143c-.067,1.416-.2,2.837-.4,4.144h0c-.062.42-.111.691-.236,1.446a5.759,5.759,0,0,1-4.087,4.632,5.334,5.334,0,0,1-5.988-2.561H38.32a2.037,2.037,0,0,0,1.917,1.356h1.356a2.034,2.034,0,1,0,0-4.068H40.238a2.035,2.035,0,0,0-1.918,1.356Zm3.839,5.289a6.8,6.8,0,0,0,2.522.057l-1.2,1.267Zm.392,2.309L38.422,27.7a25.832,25.832,0,0,1-1.518-3.52l.808-1.615Zm4.789-3.091.922,1.845A25.825,25.825,0,0,1,44.765,27.7l-2.3-2.3Zm-5.8-3.83a.678.678,0,0,1,.678-.678h1.356a.678.678,0,0,1,0,1.356H40.238A.679.679,0,0,1,39.56,18.509ZM27.383,33.357A8.568,8.568,0,0,1,32.9,25.942l2.854-.951a27.178,27.178,0,0,0,1.93,4.186l0,.007h0a27.186,27.186,0,0,0,1.856,2.834l.834,1.339Zm14.211-.6-.919-1.476q-.015-.025-.033-.048a25.852,25.852,0,0,1-1.528-2.282l2.418-2.557,2.548,2.548a25.822,25.822,0,0,1-1.533,2.291C42.513,31.272,42.56,31.2,41.594,32.752Zm1.221.6.834-1.339a27.176,27.176,0,0,0,1.869-2.856l.01-.018v0a27.156,27.156,0,0,0,1.909-4.15l2.854.951A8.568,8.568,0,0,1,55.8,33.357Z" transform="translate(-26)"/></g></g><g transform="translate(50.756 28.142)"><path class="a" d="M394.15,417.559a6.779,6.779,0,0,0-1.919-2.33.678.678,0,1,0-.827,1.075,5.415,5.415,0,0,1,1.533,1.861.678.678,0,0,0,1.213-.606Z" transform="translate(-391.139 -415.088)"/></g></g></svg>