<svg xmlns="http://www.w3.org/2000/svg" width="34.369" height="34.461" viewBox="0 0 34.369 34.461"><defs><style>.a{fill:#fff;}</style></defs><path class="a" d="M73.284,4.224a.671.671,0,0,0-.475-.2H65.961A7.383,7.383,0,1,0,64.7,12.512c1.369,1.911,3.1,3.6,6.334,3.6h2.842l7.859,7.859a.671.671,0,0,0,1.146-.475V14.1a.671.671,0,0,0-.2-.475Zm-13.9,9.2a6.041,6.041,0,1,1,5.539-8.458,5.976,5.976,0,0,1,.465,1.745H63.411a.671.671,0,0,0-.671.671,3.369,3.369,0,0,0,1.88,3.014A6.011,6.011,0,0,1,59.384,13.425Zm22.152,8.448-5.806-5.806a.671.671,0,0,0-.235-1.3H71.032c-2.8,0-4.181-1.484-5.463-3.35a7.358,7.358,0,0,0,.395-.681c.044,0,.089,0,.133,0H67.22a4.709,4.709,0,0,0,4.247,2.685.671.671,0,0,0,0-1.343A3.363,3.363,0,0,1,68.3,9.845a.671.671,0,0,0-.633-.447H66.1a2.014,2.014,0,0,1-1.9-1.343h7.268a.671.671,0,0,0,0-1.343H66.737A7.312,7.312,0,0,0,66.49,5.37h6.041l9,9Z" transform="translate(-48.509 0)"/><path class="a" d="M133.587,44a.671.671,0,0,1-.007-1.343h0a1.079,1.079,0,0,1,.728.351.671.671,0,0,0,.934-.965,2.587,2.587,0,0,0-1-.622v-.75a.671.671,0,1,0-1.343,0v.763a2.013,2.013,0,0,0,.683,3.908.671.671,0,0,1,0,1.343h-.006a1.2,1.2,0,0,1-.866-.507.671.671,0,0,0-1.029.862,2.782,2.782,0,0,0,1.217.871v.815a.671.671,0,1,0,1.343,0v-.81a2.014,2.014,0,0,0-.66-3.917Z" transform="translate(-122.702 -37.315)"/><path class="a" d="M128.013,246a.671.671,0,0,0-.671.671v2.81l-.2-.2a.671.671,0,1,0-.949.949l1.343,1.342a.671.671,0,0,0,.949,0l1.343-1.342a.671.671,0,0,0-.949-.949l-.2.2v-2.81A.671.671,0,0,0,128.013,246Z" transform="translate(-117.541 -229.487)"/><circle class="a" cx="0.44" cy="0.44" r="0.44" transform="translate(8.933 33.581)"/><path class="a" d="M4.883,354.685H.671a.671.671,0,0,0-.671.671v6.713a.671.671,0,0,0,.671.671H6.78a.671.671,0,1,0,0-1.342H1.343v-5.371H4.479a4.75,4.75,0,0,0-.049.672.671.671,0,1,0,1.343,0,3.352,3.352,0,0,1,3.356-3.357h4.584a2.017,2.017,0,0,1-1.9,1.343H9.129a.671.671,0,0,0-.671.671,3.359,3.359,0,0,0,3.356,3.356h6.409a.669.669,0,0,0,.475-.2l3.242-3.242.008-.008a2.022,2.022,0,0,1,2.336-.333L19.015,361.4H12.821a.671.671,0,1,0,0,1.342h6.513a.671.671,0,0,0,.52-.247l5.911-7.253a.671.671,0,0,0-.046-.9,3.369,3.369,0,0,0-4.251-.407,3.362,3.362,0,0,0-4.275.391l-3.045,3.045H11.814a2.017,2.017,0,0,1-1.9-1.343h1.9a3.36,3.36,0,0,0,3.356-3.356A.671.671,0,0,0,14.5,352H9.129a4.708,4.708,0,0,0-4.246,2.685Zm13.26.589a2.017,2.017,0,0,1,2.291-.393l-2.489,2.489h-1.9Z" transform="translate(0 -328.372)"/></svg>